<?xml version="1.0" encoding="UTF-8"?>
<svg xmlns="http://www.w3.org/2000/svg" viewBox="0 0 1366.42 775">
  <defs>
    <style>
      .cls-1 {
        fill: #231f20;
      }

      .cls-2 {
        fill: #1c75bc;
      }

      .cls-3 {
        fill: #fff;
        stroke-miterlimit: 10;
      }

      .cls-3, .cls-4 {
        stroke: #231f20;
        stroke-width: 10px;
      }

      .cls-4 {
        fill: none;
        stroke-linecap: round;
        stroke-linejoin: round;
      }
    </style>
  </defs>
  <g id="Layer_3" data-name="Layer 3">
    <path class="cls-2" d="M845.29,100.66h229.36c8.28,0,15,6.72,15,15V775h-259.36V115.66c0-8.28,6.72-15,15-15Z"/>
    <path class="cls-2" d="M291.76,100.66h229.36c8.28,0,15,6.72,15,15V775H276.76V115.66c0-8.28,6.72-15,15-15Z"/>
    <path class="cls-2" d="M568.53,0h229.36c8.28,0,15,6.72,15,15V775h-259.36V15c0-8.28,6.72-15,15-15Z"/>
    <path class="cls-2" d="M15,204.4H244.36c8.28,0,15,6.72,15,15V775H0V219.4c0-8.28,6.72-15,15-15Z"/>
    <path class="cls-2" d="M1122.06,204.4h229.36c8.28,0,15,6.72,15,15V775h-259.36V219.4c0-8.28,6.72-15,15-15Z"/>
  </g>
  <g id="Layer_2" data-name="Layer 2">
    <g>
      <circle class="cls-3" cx="683.21" cy="440.05" r="307.14"/>
      <g>
        <g>
          <path class="cls-1" d="M914.04,237.45l49.47,76.85-2.42,56.07-57.75-3.36c-4.03-34.24-77.23-108.79-77.23-108.79l28.88-51.03c12.76,1.34,59.05,30.25,59.05,30.25Z"/>
          <path class="cls-1" d="M843.57,486.54s30.22,38.95,19.47,107.44c0,0-39.61,55.06-107.44,69.83,0,0-73.87-29.54-87.29-59.76,0,0,56.4-94.68,56.4-114.16l118.86-3.36Z"/>
          <path class="cls-1" d="M727.4,732.34l28.2-68.52s0,32.29-28.2,68.52Z"/>
          <polygon class="cls-1" points="748.34 740.27 673.68 747.04 727.4 732.34 748.34 740.27"/>
          <path class="cls-1" d="M699.87,258.9l-58.42,117.51h-123.56s-32.23-70.51-12.76-106.77c19.48-36.26,103.75-67.82,103.75-67.82l90.99,57.07Z"/>
          <path class="cls-1" d="M534.68,609.42l-23.5,59.1s-71.09-32.23-86.24-64.47-16.32-26.27-16.32-26.27c0,0-9.58-66.39-4.21-75.12h62.45s22.82,77.89,67.82,106.76Z"/>
          <path class="cls-1" d="M429.92,266.28v16.79c-9.91,12.56-32.81,45.85-33.52,46.89l33.52-63.67Z"/>
        </g>
        <g>
          <path class="cls-4" d="M517.89,376.41h123.56l58.42-117.51-90.99-57.07s-84.27,31.56-103.75,67.82c-19.48,36.26,12.76,106.77,12.76,106.77Z"/>
          <path class="cls-4" d="M826.11,258.22s73.2,74.54,77.23,108.79l57.75,3.36,2.42-56.07-49.47-76.85s-46.29-28.91-59.05-30.25l-28.88,51.03Z"/>
          <path class="cls-4" d="M724.71,489.89l118.86-3.36s30.22,38.95,19.47,107.44c0,0-39.61,55.06-107.44,69.83,0,0-73.87-29.54-87.29-59.76,0,0,56.4-94.68,56.4-114.16Z"/>
          <path class="cls-4" d="M466.86,502.66s22.82,77.89,67.82,106.76l-23.5,59.1s-71.09-32.23-86.24-64.47-16.32-26.27-16.32-26.27c0,0-9.58-66.39-4.21-75.12h62.45Z"/>
          <path class="cls-4" d="M903.34,367.01s-11.42,83.94-59.76,119.53"/>
          <path class="cls-4" d="M724.71,489.89s-77.22-99.38-83.26-113.48"/>
          <path class="cls-4" d="M699.87,258.9s77.22-8.73,126.24-.67"/>
          <path class="cls-4" d="M608.88,201.82s7.13-46.2,44.02-67.42"/>
          <path class="cls-4" d="M814.9,162.51s36.73,28.56,40.09,44.68"/>
          <line class="cls-4" x1="396.41" y1="329.96" x2="429.92" y2="266.28"/>
          <path class="cls-4" d="M505.13,269.64s-51.04,4.7-75.21,13.43v-16.79s10.08,4.03,0,16.79c-9.91,12.56-32.81,45.85-33.52,46.89,0,.02-.02,.03-.02,.03"/>
          <path class="cls-4" d="M404.41,502.66s-25.62-32.23-28.26-69.51"/>
          <path class="cls-4" d="M517.89,376.41s-36.93,46.33-51.03,126.25"/>
          <path class="cls-4" d="M534.68,609.42s66.48,17.46,133.63-5.37"/>
          <path class="cls-4" d="M511.18,668.52s34.99,53.39,77.4,63.82"/>
          <path class="cls-4" d="M727.4,732.34c28.2-36.24,28.2-68.52,28.2-68.52"/>
          <polygon class="cls-4" points="727.4 732.34 748.34 740.27 673.68 747.04 727.4 732.34"/>
          <path class="cls-4" d="M969.44,551.64l-29.18,39.65c-22.83,12.76-77.23,2.69-77.23,2.69"/>
          <line class="cls-4" x1="939.12" y1="609.93" x2="940.27" y2="591.29"/>
          <path class="cls-4" d="M961.08,370.36s28.31,38.29,28.26,94.69"/>
        </g>
      </g>
    </g>
  </g>
</svg>