<?xml version="1.0" encoding="UTF-8"?>
<svg id="Layer_2" data-name="Layer 2" xmlns="http://www.w3.org/2000/svg" viewBox="0 0 796.8 750.81">
  <defs>
    <style>
      .cls-1 {
        fill: #231f20;
      }

      .cls-2 {
        fill: #fff;
        stroke-miterlimit: 10;
      }

      .cls-2, .cls-3 {
        stroke: #231f20;
        stroke-width: 10px;
      }

      .cls-3 {
        fill: none;
        stroke-linecap: round;
        stroke-linejoin: round;
      }
    </style>
  </defs>
  <circle class="cls-2" cx="400" cy="386.12" r="359.69"/>
  <g>
    <g>
      <path class="cls-1" d="M670.32,148.85l57.93,90-2.83,65.66-67.63-3.93c-4.72-40.1-90.44-127.4-90.44-127.4l33.82-59.76c14.94,1.57,69.15,35.43,69.15,35.43Z"/>
      <path class="cls-1" d="M587.8,440.56s35.39,45.61,22.8,125.83c0,0-46.39,64.48-125.82,81.78,0,0-86.51-34.6-102.23-69.99,0,0,66.05-110.88,66.05-133.69l139.2-3.93Z"/>
      <polygon class="cls-1" points="476.27 737.71 388.84 745.64 451.75 728.42 476.27 737.71"/>
      <path class="cls-1" d="M451.75,728.42l33.03-80.25s0,37.81-33.03,80.25Z"/>
      <path class="cls-1" d="M419.51,173.97l-68.42,137.62H206.39s-37.75-82.57-14.94-125.04c22.81-42.46,121.5-79.42,121.5-79.42l106.56,66.84Z"/>
      <path class="cls-1" d="M226.05,584.47l-27.52,69.21s-83.25-37.75-101-75.5-19.11-30.77-19.11-30.77c0,0-11.22-77.75-4.93-87.97h73.14s26.73,91.22,79.42,125.03Z"/>
      <path class="cls-1" d="M103.37,182.62v19.66c-11.61,14.71-38.42,53.7-39.25,54.91l39.25-74.57Z"/>
    </g>
    <g>
      <path class="cls-3" d="M206.39,311.59h144.7l68.42-137.62-106.56-66.84s-98.69,36.96-121.5,79.42c-22.81,42.47,14.94,125.04,14.94,125.04Z"/>
      <path class="cls-3" d="M567.35,173.18s85.72,87.3,90.44,127.4l67.63,3.93,2.83-65.66-57.93-90s-54.21-33.86-69.15-35.43l-33.82,59.76Z"/>
      <path class="cls-3" d="M448.6,444.49l139.2-3.93s35.39,45.61,22.8,125.83c0,0-46.39,64.48-125.82,81.78,0,0-86.51-34.6-102.23-69.99,0,0,66.05-110.88,66.05-133.69Z"/>
      <path class="cls-3" d="M146.63,459.44s26.73,91.22,79.42,125.03l-27.52,69.21s-83.25-37.75-101-75.5-19.11-30.77-19.11-30.77c0,0-11.22-77.75-4.93-87.97h73.14Z"/>
      <path class="cls-3" d="M657.79,300.58s-13.37,98.3-69.99,139.98"/>
      <path class="cls-3" d="M448.6,444.49s-90.43-116.38-97.51-132.9"/>
      <path class="cls-3" d="M419.51,173.97s90.43-10.22,147.84-.79"/>
      <path class="cls-3" d="M312.95,107.13s8.35-54.11,51.55-78.96"/>
      <path class="cls-3" d="M554.22,61.09s43.01,33.45,46.95,52.33"/>
      <line class="cls-3" x1="64.12" y1="257.19" x2="103.37" y2="182.62"/>
      <path class="cls-3" d="M191.45,186.55s-59.77,5.51-88.08,15.73v-19.66s11.8,4.72,0,19.66c-11.61,14.71-38.42,53.7-39.25,54.91-.01,.02-.02,.03-.02,.03"/>
      <path class="cls-3" d="M73.49,459.44s-30-37.75-33.09-81.4"/>
      <path class="cls-3" d="M206.39,311.59s-43.25,54.26-59.76,147.85"/>
      <path class="cls-3" d="M226.05,584.47s77.86,20.45,156.5-6.29"/>
      <path class="cls-3" d="M198.53,653.68s40.98,62.53,90.64,74.74"/>
      <path class="cls-3" d="M451.75,728.42c33.03-42.44,33.03-80.25,33.03-80.25"/>
      <polygon class="cls-3" points="451.75 728.42 476.27 737.71 388.84 745.64 451.75 728.42"/>
      <path class="cls-3" d="M735.21,516.8l-34.17,46.44c-26.74,14.94-90.44,3.15-90.44,3.15"/>
      <line class="cls-3" x1="699.7" y1="585.07" x2="701.04" y2="563.24"/>
      <path class="cls-3" d="M725.42,304.51s33.15,44.84,33.09,110.89"/>
    </g>
  </g>
</svg>