<?xml version="1.0" encoding="UTF-8"?>
<svg xmlns="http://www.w3.org/2000/svg" viewBox="0 0 1317.09 750.89">
  <defs>
    <style>
      .cls-1 {
        fill: #231f20;
      }

      .cls-2 {
        fill: #1c75bc;
      }

      .cls-3 {
        fill: #fff;
        stroke-miterlimit: 10;
      }

      .cls-3, .cls-4 {
        stroke: #231f20;
        stroke-width: 10px;
      }

      .cls-4 {
        fill: none;
        stroke-linecap: round;
        stroke-linejoin: round;
      }
    </style>
  </defs>
  <g id="Layer_3" data-name="Layer 3">
    <path class="cls-2" d="M815.32,250.89h220c8.28,0,15,6.72,15,15v485h-250V265.89c0-8.28,6.72-15,15-15Z"/>
    <path class="cls-2" d="M281.77,100.89h220c8.28,0,15,6.72,15,15V750.89h-250V115.89c0-8.28,6.72-15,15-15Z"/>
    <path class="cls-2" d="M548.55,50.89h220c8.28,0,15,6.72,15,15V750.89h-250V65.89c0-8.28,6.72-15,15-15Z"/>
    <path class="cls-2" d="M15,325.89H235c8.28,0,15,6.72,15,15v410H0V340.89c0-8.28,6.72-15,15-15Z"/>
    <path class="cls-2" d="M1082.09,500.89h220c8.28,0,15,6.72,15,15v235h-250v-235c0-8.28,6.72-15,15-15Z"/>
  </g>
  <g id="Layer_2" data-name="Layer 2">
    <g>
      <circle class="cls-3" cx="658.55" cy="438.68" r="307.14"/>
      <g>
        <g>
          <path class="cls-1" d="M889.37,236.07l49.47,76.85-2.42,56.07-57.75-3.36c-4.03-34.24-77.23-108.79-77.23-108.79l28.88-51.03c12.76,1.34,59.05,30.25,59.05,30.25Z"/>
          <path class="cls-1" d="M818.91,485.16s30.22,38.95,19.47,107.44c0,0-39.61,55.06-107.44,69.83,0,0-73.87-29.54-87.29-59.76,0,0,56.4-94.68,56.4-114.16l118.86-3.36Z"/>
          <path class="cls-1" d="M702.74,730.96l28.2-68.52s0,32.29-28.2,68.52Z"/>
          <polygon class="cls-1" points="723.67 738.89 649.02 745.66 702.74 730.96 723.67 738.89"/>
          <path class="cls-1" d="M675.21,257.52l-58.42,117.51h-123.56s-32.23-70.51-12.76-106.77c19.48-36.26,103.75-67.82,103.75-67.82l90.99,57.07Z"/>
          <path class="cls-1" d="M510.01,608.04l-23.5,59.1s-71.09-32.23-86.24-64.47-16.32-26.27-16.32-26.27c0,0-9.58-66.39-4.21-75.12h62.45s22.82,77.89,67.82,106.76Z"/>
          <path class="cls-1" d="M405.26,264.91v16.79c-9.91,12.56-32.81,45.85-33.52,46.89l33.52-63.67Z"/>
        </g>
        <g>
          <path class="cls-4" d="M493.23,375.03h123.56l58.42-117.51-90.99-57.07s-84.27,31.56-103.75,67.82c-19.48,36.26,12.76,106.77,12.76,106.77Z"/>
          <path class="cls-4" d="M801.45,256.84s73.2,74.54,77.23,108.79l57.75,3.36,2.42-56.07-49.47-76.85s-46.29-28.91-59.05-30.25l-28.88,51.03Z"/>
          <path class="cls-4" d="M700.05,488.51l118.86-3.36s30.22,38.95,19.47,107.44c0,0-39.61,55.06-107.44,69.83,0,0-73.87-29.54-87.29-59.76,0,0,56.4-94.68,56.4-114.16Z"/>
          <path class="cls-4" d="M442.2,501.28s22.82,77.89,67.82,106.76l-23.5,59.1s-71.09-32.23-86.24-64.47-16.32-26.27-16.32-26.27c0,0-9.58-66.39-4.21-75.12h62.45Z"/>
          <path class="cls-4" d="M878.67,365.63s-11.42,83.94-59.76,119.53"/>
          <path class="cls-4" d="M700.05,488.51s-77.22-99.38-83.26-113.48"/>
          <path class="cls-4" d="M675.21,257.52s77.22-8.73,126.24-.67"/>
          <path class="cls-4" d="M584.22,200.45s7.13-46.2,44.02-67.42"/>
          <path class="cls-4" d="M790.23,161.13s36.73,28.56,40.09,44.68"/>
          <line class="cls-4" x1="371.74" y1="328.58" x2="405.26" y2="264.91"/>
          <path class="cls-4" d="M480.47,268.26s-51.04,4.7-75.21,13.43v-16.79s10.08,4.03,0,16.79c-9.91,12.56-32.81,45.85-33.52,46.89,0,.02-.02,.03-.02,.03"/>
          <path class="cls-4" d="M379.74,501.28s-25.62-32.23-28.26-69.51"/>
          <path class="cls-4" d="M493.23,375.03s-36.93,46.33-51.03,126.25"/>
          <path class="cls-4" d="M510.01,608.04s66.48,17.46,133.63-5.37"/>
          <path class="cls-4" d="M486.51,667.14s34.99,53.39,77.4,63.82"/>
          <path class="cls-4" d="M702.74,730.96c28.2-36.24,28.2-68.52,28.2-68.52"/>
          <polygon class="cls-4" points="702.74 730.96 723.67 738.89 649.02 745.66 702.74 730.96"/>
          <path class="cls-4" d="M944.78,550.26l-29.18,39.65c-22.83,12.76-77.23,2.69-77.23,2.69"/>
          <line class="cls-4" x1="914.46" y1="608.55" x2="915.6" y2="589.91"/>
          <path class="cls-4" d="M936.42,368.99s28.31,38.29,28.26,94.69"/>
        </g>
      </g>
    </g>
  </g>
</svg>